<svg width="100" height="100" viewBox="0 0 100 100" fill="none" xmlns="http://www.w3.org/2000/svg">
<circle cx="50" cy="50" r="50" fill="#006EFF"/>
<path d="M67.1524 32.4072C63.9223 30.8189 60.4251 29.6661 56.7822 29C56.7181 29.001 56.657 29.0286 56.6122 29.0769C56.175 29.9223 55.665 31.0239 55.325 31.8693C51.461 31.2548 47.5315 31.2548 43.6675 31.8693C43.3275 30.9982 42.8175 29.9223 42.356 29.0769C42.3318 29.0256 42.2589 29 42.186 29C38.5431 29.6661 35.0701 30.8189 31.8158 32.4072C31.7915 32.4072 31.7672 32.4329 31.7429 32.4585C25.137 42.8852 23.3155 53.03 24.2141 63.0724C24.2141 63.1237 24.2384 63.1749 24.287 63.2005C28.6585 66.5821 32.8601 68.6316 37.013 69.9894C37.0859 70.015 37.1588 69.9894 37.183 69.9381C38.1545 68.5291 39.0288 67.0433 39.7817 65.4806C39.8303 65.3781 39.7817 65.2756 39.6845 65.25C38.3002 64.6864 36.9888 64.0203 35.7016 63.2518C35.6044 63.2005 35.6044 63.0468 35.6773 62.97C35.9444 62.765 36.2116 62.5344 36.4787 62.3295C36.5273 62.2783 36.6002 62.2783 36.6487 62.3039C45.0033 66.326 54.0135 66.326 62.2709 62.3039C62.3194 62.2783 62.3923 62.2783 62.4409 62.3295C62.708 62.5601 62.9752 62.765 63.2423 62.9956C63.3395 63.0724 63.3395 63.2261 63.218 63.2774C61.9551 64.0715 60.6194 64.712 59.2351 65.2756C59.1379 65.3012 59.1136 65.4293 59.1379 65.5062C59.9151 67.0689 60.7894 68.5548 61.7366 69.9638C61.8094 69.9894 61.8823 70.015 61.9552 69.9894C66.1324 68.6316 70.3339 66.5821 74.7055 63.2005C74.7541 63.1749 74.7784 63.1237 74.7784 63.0724C75.847 51.4673 73.0055 41.3993 67.2496 32.4585C67.2253 32.4329 67.201 32.4072 67.1524 32.4072ZM41.0446 56.9496C38.5431 56.9496 36.4545 54.5159 36.4545 51.5185C36.4545 48.5212 38.4945 46.0875 41.0446 46.0875C43.6189 46.0875 45.659 48.5468 45.6347 51.5185C45.6347 54.5159 43.5947 56.9496 41.0446 56.9496ZM57.9722 56.9496C55.4707 56.9496 53.3821 54.5159 53.3821 51.5185C53.3821 48.5212 55.4221 46.0875 57.9722 46.0875C60.5465 46.0875 62.5866 48.5468 62.5623 51.5185C62.5623 54.5159 60.5465 56.9496 57.9722 56.9496Z" fill="white"/>
</svg>
